<svg width="720" height="520" viewBox="0 0 720 520" fill="none" xmlns="http://www.w3.org/2000/svg">
  <rect width="720" height="520" rx="36" fill="url(#paint0_linear)"/>
  <circle cx="574" cy="122" r="98" fill="url(#paint1_radial)"/>
  <circle cx="152" cy="400" r="130" fill="url(#paint2_radial)"/>
  <rect x="108" y="86" width="504" height="348" rx="26" fill="#070C18" fill-opacity="0.84"/>
  <rect x="142" y="128" width="214" height="16" rx="8" fill="#20D8CA"/>
  <rect x="142" y="160" width="298" height="12" rx="6" fill="#93A6C9" fill-opacity="0.9"/>
  <rect x="142" y="188" width="266" height="12" rx="6" fill="#93A6C9" fill-opacity="0.75"/>
  <rect x="142" y="252" width="152" height="92" rx="14" fill="#11203A"/>
  <rect x="310" y="252" width="152" height="92" rx="14" fill="#11203A"/>
  <rect x="478" y="252" width="98" height="92" rx="14" fill="#11203A"/>
  <rect x="142" y="360" width="434" height="22" rx="11" fill="#1E3358"/>
  <defs>
    <linearGradient id="paint0_linear" x1="35" y1="24" x2="690" y2="496" gradientUnits="userSpaceOnUse">
      <stop stop-color="#0F1D36"/>
      <stop offset="1" stop-color="#0B1427"/>
    </linearGradient>
    <radialGradient id="paint1_radial" cx="0" cy="0" r="1" gradientUnits="userSpaceOnUse" gradientTransform="translate(574 122) rotate(90) scale(98)">
      <stop stop-color="#3B82F6" stop-opacity="0.62"/>
      <stop offset="1" stop-color="#3B82F6" stop-opacity="0"/>
    </radialGradient>
    <radialGradient id="paint2_radial" cx="0" cy="0" r="1" gradientUnits="userSpaceOnUse" gradientTransform="translate(152 400) rotate(90) scale(130)">
      <stop stop-color="#1DD4C7" stop-opacity="0.46"/>
      <stop offset="1" stop-color="#1DD4C7" stop-opacity="0"/>
    </radialGradient>
  </defs>
</svg>
